<svg xmlns="http://www.w3.org/2000/svg" width="720" height="420" viewBox="0 0 720 420" role="img" aria-labelledby="title desc">
  <title id="title">Social content planning visual</title>
  <desc id="desc">A dark editorial illustration of a phone screen, content cards, and a play button.</desc>
  <defs>
    <linearGradient id="bg" x1="0" y1="0" x2="1" y2="1">
      <stop offset="0" stop-color="#310606"/>
      <stop offset="0.52" stop-color="#100303"/>
      <stop offset="1" stop-color="#52080a"/>
    </linearGradient>
    <radialGradient id="glow" cx="68%" cy="34%" r="48%">
      <stop offset="0" stop-color="#e10d14" stop-opacity=".72"/>
      <stop offset=".48" stop-color="#7a0708" stop-opacity=".34"/>
      <stop offset="1" stop-color="#020202" stop-opacity="0"/>
    </radialGradient>
  </defs>
  <rect width="720" height="420" fill="url(#bg)"/>
  <rect width="720" height="420" fill="url(#glow)"/>
  <g opacity=".22" stroke="#f0d4bc" stroke-width="1">
    <path d="M70 0v420M170 0v420M270 0v420M370 0v420M470 0v420M570 0v420M670 0v420"/>
    <path d="M0 74h720M0 164h720M0 254h720M0 344h720"/>
  </g>
  <g transform="translate(254 54)">
    <rect x="0" y="0" width="212" height="312" rx="32" fill="#070202" stroke="#e10d14" stroke-width="4"/>
    <rect x="22" y="38" width="168" height="236" rx="18" fill="#180707" stroke="#f0d4bc" stroke-opacity=".22"/>
    <rect x="46" y="62" width="120" height="88" rx="10" fill="#52080a"/>
    <path d="M95 88v38l34-19-34-19Z" fill="#f0d4bc"/>
    <rect x="46" y="172" width="120" height="12" rx="6" fill="#e10d14"/>
    <rect x="46" y="198" width="88" height="10" rx="5" fill="#d9b79e" opacity=".78"/>
    <rect x="46" y="222" width="108" height="10" rx="5" fill="#d9b79e" opacity=".42"/>
    <circle cx="106" cy="294" r="7" fill="#e10d14"/>
  </g>
  <g fill="none" stroke="#e10d14" stroke-width="6" stroke-linecap="round" stroke-linejoin="round">
    <path d="M118 117h92l-30 42 34 42h-96z"/>
    <path d="M553 120h58M553 158h84M553 196h64"/>
  </g>
</svg>
